<svg width="24" height="24" viewBox="0 0 24 24" fill="none" xmlns="http://www.w3.org/2000/svg">
<path fill-rule="evenodd" clip-rule="evenodd" d="M13.8355 7.17203C13.8911 7.11442 13.9577 7.06847 14.0313 7.03686C14.1048 7.00524 14.184 6.9886 14.2641 6.98791C14.3442 6.98721 14.4236 7.00247 14.4977 7.0328C14.5719 7.06313 14.6392 7.10792 14.6959 7.16456C14.7525 7.22119 14.7973 7.28854 14.8276 7.36267C14.8579 7.4368 14.8732 7.51623 14.8725 7.59632C14.8718 7.67641 14.8552 7.75556 14.8236 7.82915C14.7919 7.90275 14.746 7.96931 14.6884 8.02495L11.1422 11.5711C11.0291 11.6842 10.9656 11.8376 10.9656 11.9976C10.9656 12.1575 11.0291 12.3109 11.1422 12.424L14.689 15.9702C14.8021 16.0834 14.8656 16.2369 14.8655 16.3969C14.8655 16.5569 14.8019 16.7103 14.6887 16.8234C14.5755 16.9365 14.422 17 14.262 17C14.102 16.9999 13.9486 16.9363 13.8355 16.8231L9.43637 12.424C9.32329 12.3109 9.25977 12.1575 9.25977 11.9976C9.25977 11.8376 9.32329 11.6842 9.43637 11.5711L13.8355 7.17203Z" fill="#505ABB"/>
</svg>
