<svg width="24" height="24" viewBox="0 0 24 24" fill="none" xmlns="http://www.w3.org/2000/svg">
<path d="M16.95 7.96662H7.05C6.59437 7.96662 6.225 8.34023 6.225 8.80111C6.225 9.26199 6.59437 9.6356 7.05 9.6356H16.95C17.4056 9.6356 17.775 9.26199 17.775 8.80111C17.775 8.34023 17.4056 7.96662 16.95 7.96662Z" fill="#A1A1AA"/>
<path fill-rule="evenodd" clip-rule="evenodd" d="M17.379 2.85953H17.5C20.5376 2.85953 23 5.35029 23 8.42281V18.4367C23 21.5092 20.5376 24 17.5 24H6.5C5.04131 24 3.64236 23.4139 2.61091 22.3706C1.57946 21.3272 1 19.9122 1 18.4367V8.42281C1 5.35029 3.46243 2.85953 6.5 2.85953H6.599V0.834492C6.599 0.373615 6.96837 0 7.424 0C7.87964 0 8.249 0.373615 8.249 0.834492V2.85953H15.729V0.834492C15.729 0.373615 16.0984 0 16.554 0C17.0096 0 17.379 0.373615 17.379 0.834492V2.85953ZM17.5 22.331C19.6263 22.331 21.35 20.5875 21.35 18.4367V8.42281C21.35 6.27205 19.6263 4.52851 17.5 4.52851H6.5C4.3737 4.52851 2.65 6.27205 2.65 8.42281V18.4367C2.65 20.5875 4.3737 22.331 6.5 22.331H17.5Z" fill="#A1A1AA"/>
</svg>
