<svg width="24" height="24" viewBox="0 0 24 24" fill="none" xmlns="http://www.w3.org/2000/svg">
<path d="M14.0566 4.07817L14.0569 4.07817C14.1961 4.07765 14.3341 4.10463 14.4628 4.15755C14.5916 4.21046 14.7086 4.28828 14.8073 4.38654C14.9059 4.48479 14.9841 4.60155 15.0375 4.73012C15.0909 4.85868 15.1184 4.99653 15.1184 5.13574V10.5048C15.1116 10.5839 15.1211 10.6637 15.1462 10.7391C15.1719 10.816 15.2134 10.8868 15.268 10.9468C15.3226 11.0068 15.3891 11.0547 15.4634 11.0875C15.5376 11.1203 15.6178 11.1373 15.6989 11.1373C15.7801 11.1373 15.8603 11.1203 15.9345 11.0875C16.0087 11.0547 16.0753 11.0068 16.1299 10.9468C16.1845 10.8868 16.226 10.816 16.2516 10.7391C16.2768 10.6637 16.2863 10.5839 16.2795 10.5048V5.13574C16.2795 4.54278 16.0439 3.97411 15.6246 3.55483C15.2054 3.13555 14.6367 2.9 14.0437 2.9H4.15527C3.56231 2.9 2.99365 3.13555 2.57436 3.55483C2.15508 3.97411 1.91953 4.54278 1.91953 5.13574V18.8429C1.91953 19.4359 2.15508 20.0045 2.57436 20.4238C2.99365 20.8431 3.56231 21.0786 4.15527 21.0786H8.90942C9.06396 21.0786 9.21216 21.0173 9.32144 20.908C9.43071 20.7987 9.4921 20.6505 9.4921 20.496C9.4921 20.3414 9.43071 20.1932 9.32144 20.084C9.21216 19.9747 9.06396 19.9133 8.90942 19.9133L4.15527 19.9133L4.15416 19.9133C4.0143 19.9148 3.87552 19.8886 3.74585 19.8362C3.61619 19.7837 3.49822 19.7061 3.39877 19.6077C3.29932 19.5093 3.22037 19.3922 3.16649 19.2632C3.11261 19.1341 3.08488 18.9956 3.08488 18.8557V5.13574V5.13573C3.08488 4.99586 3.11261 4.85737 3.16649 4.72829C3.22037 4.59922 3.29932 4.48211 3.39877 4.38375C3.49822 4.28539 3.61619 4.20773 3.74585 4.15528C3.87552 4.10283 4.0143 4.07661 4.15416 4.07816V4.07817H4.15527L14.0566 4.07817Z" fill="#505ABB" stroke="#505ABB" stroke-width="0.2"/>
<path d="M13.1468 8.26044V8.26H5.03545C4.95628 8.26679 4.87655 8.25733 4.80114 8.23216C4.72418 8.20648 4.65343 8.165 4.59343 8.11039M13.1468 8.26044L4.59343 8.11039M13.1468 8.26044L13.1562 8.25955M13.1468 8.26044L13.1562 8.25955M4.59343 8.11039C4.53342 8.05578 4.48548 7.98924 4.45268 7.91504C4.41987 7.84083 4.40293 7.76059 4.40293 7.67945C4.40293 7.59832 4.41987 7.51808 4.45268 7.44387C4.48548 7.36966 4.53342 7.30312 4.59343 7.24852C4.65343 7.19391 4.72418 7.15243 4.80114 7.12675C4.87655 7.10158 4.95628 7.09212 5.03545 7.09891H13.1468M4.59343 8.11039L13.1468 7.09891M13.1562 8.25955C13.3006 8.24592 13.4347 8.17891 13.5323 8.07163C13.63 7.96435 13.6841 7.82451 13.6841 7.67945C13.6841 7.5344 13.63 7.39456 13.5323 7.28728C13.4347 7.17999 13.3006 7.11299 13.1562 7.09936L13.1562 7.09891M13.1562 8.25955L13.1562 7.09891M13.1562 7.09891H13.1468M13.1562 7.09891H13.1468" fill="#505ABB" stroke="#505ABB" stroke-width="0.2"/>
<path d="M5.0442 12.0104H9.50789C9.66243 12.0104 9.81064 11.949 9.91991 11.8398C10.0292 11.7305 10.0906 11.5823 10.0906 11.4277C10.0906 11.2732 10.0292 11.125 9.91991 11.0157C9.81064 10.9065 9.66243 10.8451 9.50789 10.8451H5.0442C4.88966 10.8451 4.74146 10.9065 4.63219 11.0157C4.52291 11.125 4.46152 11.2732 4.46152 11.4277C4.46152 11.5823 4.52291 11.7305 4.63219 11.8398C4.74146 11.949 4.88966 12.0104 5.0442 12.0104Z" fill="#505ABB" stroke="#505ABB" stroke-width="0.2"/>
<path d="M18.4051 16.0152C18.3344 16.0153 18.2644 16.0014 18.1991 15.9743C18.1339 15.9471 18.0747 15.9073 18.0249 15.8571L16.0814 13.9093C15.9811 13.8091 15.9248 13.6731 15.9248 13.5313C15.9248 13.3895 15.9811 13.2535 16.0814 13.1533C16.1816 13.053 16.3176 12.9967 16.4594 12.9967C16.6012 12.9967 16.7372 13.053 16.8374 13.1533L18.7852 15.1011C18.8836 15.2023 18.9386 15.3379 18.9386 15.4791C18.9386 15.6203 18.8836 15.7559 18.7852 15.8571C18.7355 15.9073 18.6763 15.9471 18.611 15.9743C18.5457 16.0014 18.4757 16.0153 18.4051 16.0152Z" fill="#505ABB"/>
<path d="M10.8398 20.9836L10.8167 21.1218L10.955 21.0987L14.2013 20.5562L14.2328 20.551L14.2554 20.5284L19.6759 15.125L19.6761 15.1248C19.9408 14.8594 20.0894 14.4999 20.0894 14.1251C20.0894 13.7504 19.9408 13.3909 19.6761 13.1255L19.676 13.1254L18.8217 12.2711L18.8216 12.271C18.5563 12.0063 18.1968 11.8577 17.822 11.8577C17.4472 11.8577 17.0877 12.0063 16.8223 12.271L16.8222 12.2711L11.4102 17.6831L11.3876 17.7057L11.3823 17.7373L10.8398 20.9836ZM13.6242 19.3434L12.3669 19.5542L12.5739 18.2971L17.715 13.1391C17.7425 13.1125 17.7793 13.0976 17.8177 13.0976C17.8561 13.0976 17.8929 13.1125 17.9205 13.1392L18.7738 13.9925C18.8005 14.02 18.8154 14.0569 18.8154 14.0952C18.8154 14.1336 18.8005 14.1705 18.7738 14.198L13.6242 19.3434Z" fill="#505ABB" stroke="#505ABB" stroke-width="0.2"/>
</svg>
