<svg width="22" height="18" viewBox="0 0 22 18" fill="none" xmlns="http://www.w3.org/2000/svg">
<path d="M3.53033 0.469668C3.23744 0.176777 2.76256 0.176777 2.46967 0.469668C2.17678 0.762558 2.17678 1.23744 2.46967 1.53033L3.53033 0.469668ZM18.4697 17.5303C18.7626 17.8232 19.2374 17.8232 19.5303 17.5303C19.8232 17.2374 19.8232 16.7626 19.5303 16.4697L18.4697 17.5303ZM13.5002 11.795C13.8088 11.5187 13.8351 11.0446 13.5589 10.7359C13.2826 10.4273 12.8085 10.401 12.4998 10.6773L13.5002 11.795ZM9.3227 7.5002C9.599 7.1915 9.5727 6.71739 9.2641 6.44115C8.95543 6.1649 8.48129 6.19117 8.20504 6.49981L9.3227 7.5002ZM18.1153 12.0421C17.8029 12.314 17.7701 12.7878 18.0421 13.1002C18.3141 13.4126 18.7878 13.4453 19.1002 13.1734L18.1153 12.0421ZM8.18831 1.69699C7.79307 1.82092 7.57313 2.24179 7.69705 2.63703C7.82098 3.03227 8.24185 3.25221 8.63709 3.12829L8.18831 1.69699ZM5.90354 4.43556C6.25269 4.21269 6.35505 3.74898 6.13218 3.39984C5.90931 3.0507 5.4456 2.94833 5.09646 3.1712L5.90354 4.43556ZM16.5515 15.0471C16.9064 14.8335 17.021 14.3727 16.8075 14.0177C16.5939 13.6628 16.1331 13.5482 15.7782 13.7618L16.5515 15.0471ZM2.46967 1.53033L18.4697 17.5303L19.5303 16.4697L3.53033 0.469668L2.46967 1.53033ZM7.25 9C7.25 11.0711 8.92893 12.75 11 12.75V11.25C9.7574 11.25 8.75 10.2426 8.75 9H7.25ZM11 12.75C11.96 12.75 12.8372 12.3883 13.5002 11.795L12.4998 10.6773C12.1012 11.034 11.5767 11.25 11 11.25V12.75ZM8.20504 6.49981C7.61169 7.1628 7.25 8.04 7.25 9H8.75C8.75 8.4233 8.96602 7.8988 9.3227 7.5002L8.20504 6.49981ZM1.32608 11.6636C3.2977 13.738 6.84898 16.75 11 16.75V15.25C7.51999 15.25 4.35328 12.6713 2.41334 10.6302L1.32608 11.6636ZM20.6739 6.33641C18.7023 4.26198 15.151 1.25 11 1.25V2.75C14.48 2.75 17.6467 5.32869 19.5867 7.3698L20.6739 6.33641ZM20.6739 11.6636C22.1087 10.154 22.1087 7.846 20.6739 6.33641L19.5867 7.3698C20.4711 8.3004 20.4711 9.6996 19.5867 10.6302L20.6739 11.6636ZM2.41334 10.6302C1.52889 9.6996 1.52889 8.3004 2.41334 7.3698L1.32608 6.33641C-0.108693 7.846 -0.108694 10.154 1.32608 11.6636L2.41334 10.6302ZM19.1002 13.1734C19.6921 12.6581 20.2202 12.1409 20.6739 11.6636L19.5867 10.6302C19.1602 11.0789 18.6662 11.5624 18.1153 12.0421L19.1002 13.1734ZM11 1.25C10.0225 1.25 9.0801 1.41736 8.18831 1.69699L8.63709 3.12829C9.4042 2.88776 10.1948 2.75 11 2.75V1.25ZM5.09646 3.1712C3.57051 4.14527 2.28015 5.33259 1.32608 6.33641L2.41334 7.3698C3.31512 6.42098 4.51237 5.3236 5.90354 4.43556L5.09646 3.1712ZM11 16.75C13.0476 16.75 14.9403 16.0165 16.5515 15.0471L15.7782 13.7618C14.3131 14.6433 12.6886 15.25 11 15.25V16.75Z" fill="#49475A"/>
</svg>
