<svg width="50" height="50" viewBox="0 0 50 50" fill="none" xmlns="http://www.w3.org/2000/svg">
<path d="M26.8002 6.99969H27.2912C33.1614 6.99969 36.0965 6.99969 38.1348 8.43581C38.7188 8.84728 39.2373 9.33526 39.6745 9.88492C41.2004 11.8033 41.2004 14.5658 41.2004 20.0907V24.6726C41.2004 30.0063 41.2004 32.6732 40.3563 34.8032C38.9993 38.2274 36.1295 40.9284 32.4913 42.2056C30.2281 43 27.3946 43 21.7275 43C18.4891 43 16.8699 43 15.5767 42.5461C13.4977 41.8162 11.8579 40.2728 11.0824 38.3161C10.6001 37.099 10.6001 35.5751 10.6001 32.5272V24.9999" stroke="#54577A" stroke-width="2" stroke-linecap="round" stroke-linejoin="round"/>
<path d="M41.1999 24.9998C41.1999 28.3136 38.5136 30.9999 35.1998 30.9999C34.0014 30.9999 32.5885 30.7899 31.4233 31.1021C30.388 31.3795 29.5794 32.1882 29.302 33.2234C28.9898 34.3886 29.1998 35.8015 29.1998 36.9999C29.1998 40.3137 26.5134 43 23.1997 43" stroke="#54577A" stroke-width="2" stroke-linecap="round" stroke-linejoin="round"/>
<path d="M23.1999 14.1998L8.7998 14.1998M15.9999 6.99969V21.3998" stroke="#54577A" stroke-width="2" stroke-linecap="round"/>
</svg>
