<svg width="20" height="20" viewBox="0 0 20 20" fill="none" xmlns="http://www.w3.org/2000/svg">
<path d="M5.63994 2C4.67551 2 3.75059 2.38312 3.06864 3.06507C2.38669 3.74702 2.00357 4.67194 2.00357 5.63636C2.00357 6.60079 2.38669 7.52571 3.06864 8.20766C3.75059 8.88961 4.67551 9.27273 5.63994 9.27273C6.60436 9.27273 7.52928 8.88961 8.21123 8.20766C8.89318 7.52571 9.2763 6.60079 9.2763 5.63636C9.2763 4.67194 8.89318 3.74702 8.21123 3.06507C7.52928 2.38312 6.60436 2 5.63994 2ZM5.63994 7.81818C5.06128 7.81818 4.50633 7.58831 4.09716 7.17914C3.68799 6.76997 3.45812 6.21502 3.45812 5.63636C3.45812 5.05771 3.68799 4.50276 4.09716 4.09359C4.50633 3.68442 5.06128 3.45455 5.63994 3.45455C6.21859 3.45455 6.77354 3.68442 7.18271 4.09359C7.59189 4.50276 7.82175 5.05771 7.82175 5.63636C7.82175 6.21502 7.59189 6.76997 7.18271 7.17914C6.77354 7.58831 6.21859 7.81818 5.63994 7.81818ZM14.3672 9.27273C15.3316 9.27273 16.2566 8.88961 16.9385 8.20766C17.6205 7.52571 18.0036 6.60079 18.0036 5.63636C18.0036 4.67194 17.6205 3.74702 16.9385 3.06507C16.2566 2.38312 15.3316 2 14.3672 2C13.4028 2 12.4779 2.38312 11.7959 3.06507C11.114 3.74702 10.7308 4.67194 10.7308 5.63636C10.7308 6.60079 11.114 7.52571 11.7959 8.20766C12.4779 8.88961 13.4028 9.27273 14.3672 9.27273ZM14.3672 3.45455C14.9459 3.45455 15.5008 3.68442 15.91 4.09359C16.3192 4.50276 16.549 5.05771 16.549 5.63636C16.549 6.21502 16.3192 6.76997 15.91 7.17914C15.5008 7.58831 14.9459 7.81818 14.3672 7.81818C13.7886 7.81818 13.2336 7.58831 12.8244 7.17914C12.4153 6.76997 12.1854 6.21502 12.1854 5.63636C12.1854 5.05771 12.4153 4.50276 12.8244 4.09359C13.2336 3.68442 13.7886 3.45455 14.3672 3.45455ZM5.63994 10.7273C5.15812 10.7205 4.67976 10.8095 4.23265 10.9891C3.78553 11.1688 3.37859 11.4355 3.03546 11.7739C2.69233 12.1122 2.41986 12.5153 2.23389 12.9598C2.04792 13.4044 1.95215 13.8814 1.95215 14.3633C1.95215 14.8451 2.04792 15.3222 2.23389 15.7667C2.41986 16.2112 2.69233 16.6144 3.03546 16.9527C3.37859 17.291 3.78553 17.5577 4.23265 17.7374C4.67976 17.9171 5.15812 18.0061 5.63994 17.9993C6.59536 17.9858 7.50707 17.5967 8.17793 16.9163C8.84878 16.2359 9.22488 15.3188 9.22488 14.3633C9.22488 13.4078 8.84878 12.4906 8.17793 11.8102C7.50707 11.1298 6.59536 10.7408 5.63994 10.7273ZM5.63994 16.5455C5.35342 16.5455 5.0697 16.489 4.80499 16.3794C4.54028 16.2697 4.29976 16.109 4.09716 15.9064C3.89456 15.7038 3.73385 15.4633 3.6242 15.1986C3.51455 14.9339 3.45812 14.6502 3.45812 14.3636C3.45812 14.0771 3.51455 13.7934 3.6242 13.5287C3.73385 13.264 3.89456 13.0235 4.09716 12.8209C4.29976 12.6183 4.54028 12.4575 4.80499 12.3479C5.0697 12.2383 5.35342 12.1818 5.63994 12.1818C6.21859 12.1818 6.77354 12.4117 7.18271 12.8209C7.59189 13.23 7.82175 13.785 7.82175 14.3636C7.82175 14.9423 7.59189 15.4972 7.18271 15.9064C6.77354 16.3156 6.21859 16.5455 5.63994 16.5455ZM18.0036 14.3636C18.0036 14.5565 17.9269 14.7415 17.7906 14.8779C17.6542 15.0143 17.4692 15.0909 17.2763 15.0909H15.0945V17.2727C15.0945 17.4656 15.0179 17.6506 14.8815 17.787C14.7451 17.9234 14.5601 18 14.3672 18C14.1743 18 13.9893 17.9234 13.8529 17.787C13.7166 17.6506 13.6399 17.4656 13.6399 17.2727V15.0909H11.4581C11.2652 15.0909 11.0802 15.0143 10.9439 14.8779C10.8075 14.7415 10.7308 14.5565 10.7308 14.3636C10.7308 14.1708 10.8075 13.9858 10.9439 13.8494C11.0802 13.713 11.2652 13.6364 11.4581 13.6364H13.6399V11.4545C13.6399 11.2617 13.7166 11.0767 13.8529 10.9403C13.9893 10.8039 14.1743 10.7273 14.3672 10.7273C14.5601 10.7273 14.7451 10.8039 14.8815 10.9403C15.0179 11.0767 15.0945 11.2617 15.0945 11.4545V13.6364H17.2763C17.4692 13.6364 17.6542 13.713 17.7906 13.8494C17.9269 13.9858 18.0036 14.1708 18.0036 14.3636Z" fill="#54577A"/>
</svg>
