<svg width="30" height="30" viewBox="0 0 30 30" fill="none" xmlns="http://www.w3.org/2000/svg">
<path fill-rule="evenodd" clip-rule="evenodd" d="M6.66699 9.04759C6.66699 8.73186 6.79242 8.42906 7.01568 8.2058C7.23893 7.98254 7.54174 7.85712 7.85747 7.85712H22.1432C22.4589 7.85712 22.7618 7.98254 22.985 8.2058C23.2083 8.42906 23.3337 8.73186 23.3337 9.04759C23.3337 9.36333 23.2083 9.66613 22.985 9.88939C22.7618 10.1126 22.4589 10.2381 22.1432 10.2381H7.85747C7.54174 10.2381 7.23893 10.1126 7.01568 9.88939C6.79242 9.66613 6.66699 9.36333 6.66699 9.04759ZM6.66699 15C6.66699 14.6843 6.79242 14.3814 7.01568 14.1582C7.23893 13.9349 7.54174 13.8095 7.85747 13.8095H15.0003C15.3161 13.8095 15.6189 13.9349 15.8421 14.1582C16.0654 14.3814 16.1908 14.6843 16.1908 15C16.1908 15.3157 16.0654 15.6185 15.8421 15.8418C15.6189 16.065 15.3161 16.1905 15.0003 16.1905H7.85747C7.54174 16.1905 7.23893 16.065 7.01568 15.8418C6.79242 15.6185 6.66699 15.3157 6.66699 15ZM6.66699 20.9524C6.66699 20.6366 6.79242 20.3338 7.01568 20.1106C7.23893 19.8873 7.54174 19.7619 7.85747 19.7619H22.1432C22.4589 19.7619 22.7618 19.8873 22.985 20.1106C23.2083 20.3338 23.3337 20.6366 23.3337 20.9524C23.3337 21.2681 23.2083 21.5709 22.985 21.7942C22.7618 22.0174 22.4589 22.1429 22.1432 22.1429H7.85747C7.54174 22.1429 7.23893 22.0174 7.01568 21.7942C6.79242 21.5709 6.66699 21.2681 6.66699 20.9524Z" fill="#505ABB"/>
</svg>
