<svg width="24" height="24" viewBox="0 0 24 24" fill="none" xmlns="http://www.w3.org/2000/svg">
<path d="M22.7823 14.7282C22.6842 14.6303 22.5604 14.5623 22.4251 14.5319C22.2899 14.5015 22.1489 14.5101 22.0183 14.5566C20.264 15.1821 18.3683 15.2969 16.5514 14.8878C14.7344 14.4787 13.0708 13.5624 11.7539 12.2455C10.437 10.9285 9.52084 9.26486 9.11183 7.44788C8.70283 5.63091 8.81778 3.73517 9.44335 1.98094C9.48983 1.85037 9.49836 1.70931 9.46794 1.57409C9.43752 1.43888 9.3694 1.31506 9.27147 1.21698C9.17355 1.11891 9.04984 1.05059 8.91467 1.01996C8.77951 0.989332 8.63843 0.997637 8.50779 1.04392C6.92622 1.60242 5.49096 2.51039 4.3088 3.70027C2.1896 5.82107 0.999433 8.6967 1 11.6948C1.00057 14.693 2.19182 17.5682 4.31183 19.6882C6.43183 21.8082 9.30701 22.9994 12.3051 23C15.3033 23.0006 18.1789 21.8104 20.2997 19.6912C21.4897 18.5088 22.3977 17.0733 22.9561 15.4915C23.0022 15.3608 23.0103 15.2198 22.9796 15.0847C22.9488 14.9496 22.8804 14.826 22.7823 14.7282ZM19.263 18.6544C18.2632 19.6514 17.0607 20.4215 15.7369 20.9126C14.4132 21.4037 12.9993 21.6041 11.5912 21.5004C10.1832 21.3967 8.8139 20.9912 7.57642 20.3114C6.33894 19.6317 5.26221 18.6936 4.41934 17.5609C3.57647 16.4283 2.98719 15.1275 2.69153 13.7469C2.39586 12.3663 2.40073 10.9383 2.70579 9.55976C3.01086 8.18123 3.60898 6.88449 4.45954 5.75757C5.31011 4.63065 6.39321 3.69996 7.6353 3.02867C7.26759 4.85925 7.35617 6.75221 7.89322 8.54045C8.43027 10.3287 9.39927 11.9572 10.7147 13.2824C12.0397 14.598 13.6682 15.5671 15.4565 16.1042C17.2448 16.6413 19.1378 16.7297 20.9684 16.3618C20.5151 17.2053 19.9405 17.9777 19.263 18.6544Z" fill="#8E92BC"/>
</svg>
